<?xml version="1.0" encoding="UTF-8" standalone="no"?>
<svg
   xmlns:dc="http://purl.org/dc/elements/1.1/"
   xmlns:cc="http://creativecommons.org/ns#"
   xmlns:rdf="http://www.w3.org/1999/02/22-rdf-syntax-ns#"
   xmlns:svg="http://www.w3.org/2000/svg"
   xmlns="http://www.w3.org/2000/svg"
   xmlns:xlink="http://www.w3.org/1999/xlink"
   xmlns:sodipodi="http://sodipodi.sourceforge.net/DTD/sodipodi-0.dtd"
   xmlns:inkscape="http://www.inkscape.org/namespaces/inkscape"
   viewBox="0 0 960.00004 600"
   id="svg2"
   version="1.1"
   inkscape:version="0.91 r13725"
   sodipodi:docname="BevelledArgentina.svg"
   width="960.00006"
   height="600">
  <metadata
     id="metadata4551">
    <rdf:RDF>
      <cc:Work
         rdf:about="">
        <dc:format>image/svg+xml</dc:format>
        <dc:type
           rdf:resource="http://purl.org/dc/dcmitype/StillImage" />
        <dc:title></dc:title>
      </cc:Work>
    </rdf:RDF>
  </metadata>
  <sodipodi:namedview
     pagecolor="#ffffff"
     bordercolor="#666666"
     borderopacity="1"
     objecttolerance="10"
     gridtolerance="10"
     guidetolerance="10"
     inkscape:pageopacity="0"
     inkscape:pageshadow="2"
     inkscape:window-width="1600"
     inkscape:window-height="837"
     id="namedview4549"
     showgrid="true"
     fit-margin-top="0"
     fit-margin-left="0"
     fit-margin-right="0"
     fit-margin-bottom="0"
     inkscape:object-nodes="true"
     inkscape:snap-smooth-nodes="true"
     inkscape:object-paths="false"
     inkscape:snap-global="true"
     inkscape:zoom="1.1166667"
     inkscape:cx="480.00003"
     inkscape:cy="300"
     inkscape:window-x="-8"
     inkscape:window-y="-8"
     inkscape:window-maximized="1"
     inkscape:current-layer="svg2" />
  <defs
     id="defs4">
    <linearGradient
       id="linearGradient6136">
      <stop
         style="stop-color:#000000;stop-opacity:0;"
         offset="0"
         id="stop6138" />
      <stop
         style="stop-color:#000000;stop-opacity:1;"
         offset="1"
         id="stop6140" />
    </linearGradient>
    <linearGradient
       id="linearGradient22506">
      <stop
         style="stop-color:#ffffff;stop-opacity:1;"
         offset="0"
         id="stop22508" />
      <stop
         style="stop-color:#ffffff;stop-opacity:0;"
         offset="1"
         id="stop22510" />
    </linearGradient>
    <linearGradient
       id="linearGradient22338">
      <stop
         style="stop-color:#000000;stop-opacity:0;"
         offset="0"
         id="stop22340" />
      <stop
         id="stop6129"
         offset="0.5"
         style="stop-color:#000000;stop-opacity:0;" />
      <stop
         style="stop-color:#000000;stop-opacity:1;"
         offset="1"
         id="stop22342" />
    </linearGradient>
    <filter
       style="color-interpolation-filters:sRGB"
       inkscape:label="Blur"
       id="filter23929">
      <feGaussianBlur
         stdDeviation="1 5"
         result="blur"
         id="feGaussianBlur23931" />
    </filter>
    <filter
       style="color-interpolation-filters:sRGB"
       inkscape:label="Blur"
       id="filter23980">
      <feGaussianBlur
         stdDeviation="2 2"
         result="blur"
         id="feGaussianBlur23982" />
    </filter>
    <filter
       style="color-interpolation-filters:sRGB"
       inkscape:label="Blur"
       id="filter23988">
      <feGaussianBlur
         stdDeviation="1 1"
         result="blur"
         id="feGaussianBlur23990" />
    </filter>
    <filter
       style="color-interpolation-filters:sRGB"
       inkscape:label="Blur"
       id="filter24008">
      <feGaussianBlur
         stdDeviation="1 1"
         result="blur"
         id="feGaussianBlur24010" />
    </filter>
    <filter
       style="color-interpolation-filters:sRGB"
       inkscape:label="Blur"
       id="filter24012">
      <feGaussianBlur
         stdDeviation="1 1"
         result="blur"
         id="feGaussianBlur24014" />
    </filter>
    <filter
       style="color-interpolation-filters:sRGB"
       inkscape:label="Blur"
       id="filter24016">
      <feGaussianBlur
         stdDeviation="1 1"
         result="blur"
         id="feGaussianBlur24018" />
    </filter>
    <filter
       style="color-interpolation-filters:sRGB"
       inkscape:label="Blur"
       id="filter24020">
      <feGaussianBlur
         stdDeviation="1 1"
         result="blur"
         id="feGaussianBlur24022" />
    </filter>
    <filter
       style="color-interpolation-filters:sRGB"
       inkscape:label="Blur"
       id="filter24024">
      <feGaussianBlur
         stdDeviation="1 1"
         result="blur"
         id="feGaussianBlur24026" />
    </filter>
    <filter
       style="color-interpolation-filters:sRGB"
       inkscape:label="Blur"
       id="filter24028">
      <feGaussianBlur
         stdDeviation="1 1"
         result="blur"
         id="feGaussianBlur24030" />
    </filter>
    <filter
       style="color-interpolation-filters:sRGB"
       inkscape:label="Blur"
       id="filter24032">
      <feGaussianBlur
         stdDeviation="1 1"
         result="blur"
         id="feGaussianBlur24034" />
    </filter>
    <filter
       style="color-interpolation-filters:sRGB"
       inkscape:label="Blur"
       id="filter24036">
      <feGaussianBlur
         stdDeviation="1 1"
         result="blur"
         id="feGaussianBlur24038" />
    </filter>
    <filter
       style="color-interpolation-filters:sRGB"
       inkscape:label="Blur"
       id="filter24052">
      <feGaussianBlur
         stdDeviation="1 1"
         result="blur"
         id="feGaussianBlur24054" />
    </filter>
    <filter
       style="color-interpolation-filters:sRGB"
       inkscape:label="Blur"
       id="filter24309">
      <feGaussianBlur
         stdDeviation="2 2"
         result="blur"
         id="feGaussianBlur24311" />
    </filter>
    <clipPath
       clipPathUnits="userSpaceOnUse"
       id="clipPath4532">
      <path
         inkscape:connector-curvature="0"
         id="path4534"
         d="M 18.75,-2.6189942e-4 A 18.75,18.75 0 0 0 0,18.749739 L 0,381.25023 a 18.75,18.75 0 0 0 18.75,18.75 l 562.50001,0 a 18.75,18.75 0 0 0 18.75001,-18.75 l 0,-362.500491 A 18.75,18.75 0 0 0 581.25001,-2.6189942e-4 l -562.50001,0 z"
         style="fill:#00ffff;fill-opacity:1" />
    </clipPath>
    <radialGradient
       inkscape:collect="always"
       xlink:href="#linearGradient22338"
       id="radialGradient6127"
       cx="1070"
       cy="700.00079"
       fx="1070"
       fy="700.00079"
       r="40"
       gradientUnits="userSpaceOnUse"
       gradientTransform="matrix(-1,0,0,1,-170,-99.999203)" />
    <linearGradient
       inkscape:collect="always"
       xlink:href="#linearGradient6136"
       id="linearGradient6142"
       x1="780"
       y1="373.3338"
       x2="800"
       y2="373.3338"
       gradientUnits="userSpaceOnUse"
       gradientTransform="matrix(1,0,0,0.92646923,-2000,44.118511)" />
    <linearGradient
       inkscape:collect="always"
       xlink:href="#linearGradient6136"
       id="linearGradient6152"
       x1="410"
       y1="620.00079"
       x2="410"
       y2="640.00079"
       gradientUnits="userSpaceOnUse"
       gradientTransform="translate(-2000,0)" />
    <radialGradient
       inkscape:collect="always"
       xlink:href="#linearGradient22338"
       id="radialGradient6156"
       gradientUnits="userSpaceOnUse"
       gradientTransform="translate(-3030,-99.9992)"
       cx="1070"
       cy="700.00079"
       fx="1070"
       fy="700.00079"
       r="40" />
    <linearGradient
       inkscape:collect="always"
       xlink:href="#linearGradient6136"
       id="linearGradient6160"
       gradientUnits="userSpaceOnUse"
       x1="780"
       y1="373.3338"
       x2="800"
       y2="373.3338"
       gradientTransform="matrix(1,0,0,0.92646923,1200,44.118511)" />
    <linearGradient
       inkscape:collect="always"
       xlink:href="#linearGradient6136"
       id="linearGradient6164"
       gradientUnits="userSpaceOnUse"
       x1="410"
       y1="620.00079"
       x2="410"
       y2="640.00079"
       gradientTransform="translate(-2000,-780.00157)" />
    <radialGradient
       inkscape:collect="always"
       xlink:href="#linearGradient22338"
       id="radialGradient6174"
       gradientUnits="userSpaceOnUse"
       gradientTransform="matrix(-1,0,0,-1,-170.00003,880.00078)"
       cx="1070"
       cy="700.00079"
       fx="1070"
       fy="700.00079"
       r="40" />
    <radialGradient
       inkscape:collect="always"
       xlink:href="#linearGradient22338"
       id="radialGradient6176"
       gradientUnits="userSpaceOnUse"
       gradientTransform="matrix(1,0,0,-1,-3030,880.00078)"
       cx="1070"
       cy="700.00079"
       fx="1070"
       fy="700.00079"
       r="40" />
    <linearGradient
       inkscape:collect="always"
       xlink:href="#linearGradient22506"
       id="linearGradient6209"
       x1="2050"
       y1="-120.00079"
       x2="2560"
       y2="-630.00079"
       gradientUnits="userSpaceOnUse"
       gradientTransform="matrix(1,0,0,0.93877538,-4000,-37.95931)" />
    <filter
       style="color-interpolation-filters:sRGB"
       inkscape:label="Blur"
       id="filter6223">
      <feGaussianBlur
         stdDeviation="2 2"
         result="blur"
         id="feGaussianBlur6225" />
    </filter>
    <filter
       style="color-interpolation-filters:sRGB"
       inkscape:label="Blur"
       id="filter15556">
      <feGaussianBlur
         stdDeviation="2 2"
         result="blur"
         id="feGaussianBlur15558" />
    </filter>
    <filter
       style="color-interpolation-filters:sRGB"
       inkscape:label="Blur"
       id="filter4960">
      <feGaussianBlur
         stdDeviation="2 2"
         result="blur"
         id="feGaussianBlur4962" />
    </filter>
    <filter
       style="color-interpolation-filters:sRGB"
       inkscape:label="Blur"
       id="filter4966">
      <feGaussianBlur
         stdDeviation="2 2"
         result="blur"
         id="feGaussianBlur4968" />
    </filter>
    <filter
       style="color-interpolation-filters:sRGB"
       inkscape:label="Blur"
       id="filter4970">
      <feGaussianBlur
         stdDeviation="2 2"
         result="blur"
         id="feGaussianBlur4972" />
    </filter>
    <clipPath
       clipPathUnits="userSpaceOnUse"
       id="clipPath7387">
      <rect
         style="fill:#d70000;fill-opacity:1"
         id="rect7389"
         width="800"
         height="500"
         x="0"
         y="-500"
         transform="scale(1,-1)"
         ry="40" />
    </clipPath>
  </defs>
  <g
     id="g7391"
     transform="translate(80,-91.000793)">
    <rect
       style="fill:#000000;fill-opacity:1;filter:url(#filter4970)"
       id="rect6199"
       width="800"
       height="500"
       x="-1000"
       y="-641.00079"
       transform="matrix(1,0,0,-1,1000,0)"
       ry="40" />
    <g
       clip-path="url(#clipPath7387)"
       transform="translate(0,140.00079)"
       id="g4188">
      <rect
         width="800"
         height="500"
         id="rect4"
         x="0"
         y="0"
         style="fill:#74acdf" />
      <rect
         y="166.67"
         width="800"
         height="166.67"
         id="rect6"
         x="0"
         style="fill:#ffffff" />
      <g
         id="rays">
        <path
           id="ray1"
           d="m 396.84,251.31 28.454,61.992 c 0,0 0.4896,1.185 1.28,0.8586 0.7902,-0.3267 0.2988,-1.5116 0.2988,-1.5116 l -23.715,-63.956 m -0.68,24.12 c -0.3465,9.4278 5.4526,14.613 4.6943,23.032 -0.7569,8.42 3.8673,13.18 4.9396,16.454 1.0733,3.2744 -1.16,5.2323 -0.198,5.6982 0.96336,0.4662 3.07,-2.1207 2.3833,-6.7756 -0.68675,-4.6549 -4.2204,-6.0368 -3.3898,-16.32 0.83,-10.283 -4.206,-12.678 -2.98,-22.058"
           inkscape:connector-curvature="0"
           style="fill:#f6b40e;stroke:#85340a;stroke-width:1.11160004" />
        <use
           xlink:href="#ray1"
           transform="matrix(0.92387953,0.38268343,-0.38268343,0.92387953,126.11905,-134.04326)"
           id="use10"
           x="0"
           y="0"
           width="100%"
           height="100%" />
        <use
           xlink:href="#ray1"
           transform="matrix(0.70710678,0.70710678,-0.70710678,0.70710678,293.93398,-209.61941)"
           id="use12"
           x="0"
           y="0"
           width="100%"
           height="100%" />
        <use
           xlink:href="#ray1"
           transform="matrix(0.38268343,0.92387953,-0.92387953,0.38268343,477.89651,-215.22267)"
           id="use14"
           x="0"
           y="0"
           width="100%"
           height="100%" />
        <path
           id="ray2"
           d="m 404.31,274.41 c 0.45334,9.0538 5.5867,13.063 4.5787,21.314 2.2133,-6.5249 -3.1233,-11.583 -2.82,-21.22 m -7.6487,-23.757 19.487,42.577 -16.329,-43.887"
           inkscape:connector-curvature="0"
           style="fill:#85340a" />
        <use
           xlink:href="#ray2"
           transform="matrix(0.92387953,0.38268343,-0.38268343,0.92387953,126.11905,-134.04326)"
           id="use17"
           x="0"
           y="0"
           width="100%"
           height="100%" />
        <use
           xlink:href="#ray2"
           transform="matrix(0.70710678,0.70710678,-0.70710678,0.70710678,293.93398,-209.61941)"
           id="use19"
           x="0"
           y="0"
           width="100%"
           height="100%" />
        <use
           xlink:href="#ray2"
           transform="matrix(0.38268343,0.92387953,-0.92387953,0.38268343,477.89651,-215.22267)"
           id="use21"
           x="0"
           y="0"
           width="100%"
           height="100%" />
      </g>
      <use
         xlink:href="#rays"
         transform="matrix(0,1,-1,0,650,-150)"
         id="use23"
         x="0"
         y="0"
         width="100%"
         height="100%" />
      <use
         xlink:href="#rays"
         transform="matrix(-1,0,0,-1,800,500)"
         id="use25"
         x="0"
         y="0"
         width="100%"
         height="100%" />
      <use
         xlink:href="#rays"
         transform="matrix(0,-1,1,0,150,650)"
         id="use27"
         x="0"
         y="0"
         width="100%"
         height="100%" />
      <circle
         r="27.778"
         cy="250"
         cx="400"
         id="circle29"
         style="fill:#f6b40e;stroke:#85340a;stroke-width:1.5" />
      <path
         id="loweyecontour"
         d="m 409.47,244.06 c -1.8967,3e-5 -3.7131,0.82183 -4.7812,2.5312 2.1367,1.9227 6.8565,2.1318 10.062,-0.21875 -1.3883,-1.4954 -3.3845,-2.3125 -5.2812,-2.3125 z m -0.0312,0.4375 c 1.8462,-0.0335 3.5717,0.81446 3.8125,1.6562 -2.1367,2.3504 -5.5508,2.1463 -7.6875,0.4375 0.9348,-1.4957 2.4391,-2.0677 3.875,-2.0938 z"
         inkscape:connector-curvature="0"
         style="fill:#843511" />
      <use
         xlink:href="#uppalpebra"
         transform="matrix(-1,0,0,1,800.25,0)"
         id="use32"
         x="0"
         y="0"
         width="100%"
         height="100%" />
      <use
         xlink:href="#eyebrow_nose"
         transform="matrix(-1,0,0,1,800.25,0)"
         id="use34"
         x="0"
         y="0"
         width="100%"
         height="100%" />
      <use
         xlink:href="#pupil"
         transform="translate(18.862,0)"
         id="use36"
         x="0"
         y="0"
         width="100%"
         height="100%" />
      <use
         xlink:href="#lowpalpebra"
         transform="matrix(-1,0,0,1,800.25,0)"
         id="use38"
         x="0"
         y="0"
         width="100%"
         height="100%" />
      <path
         d="m 395.75,253.84 c -0.91341,0.16668 -1.5625,0.97727 -1.5625,1.9062 0,1.0614 0.87748,1.9062 1.9375,1.9062 0.62667,0 1.2025,-0.2968 1.5625,-0.8125 0.73952,0.55614 1.7646,0.61511 2.3125,0.625 0.0843,0.002 0.19312,0 0.25,0 0.54791,-0.01 1.573,-0.0689 2.3125,-0.625 0.36,0.5157 0.93583,0.8125 1.5625,0.8125 1.06,0 1.9375,-0.84488 1.9375,-1.9062 0,-0.92898 -0.64918,-1.7396 -1.5625,-1.9062 0.513,0.1809 0.84375,0.6765 0.84375,1.2188 0,0.7074 -0.57124,1.2812 -1.2812,1.2812 -0.6804,0 -1.2413,-0.54015 -1.2812,-1.2188 -0.20862,0.41637 -1.0341,1.6551 -2.6562,1.7188 -1.6222,-0.0636 -2.4476,-1.3024 -2.6562,-1.7188 -0.04,0.6786 -0.60085,1.2188 -1.2812,1.2188 -0.71001,0 -1.2812,-0.57385 -1.2812,-1.2812 0,-0.54225 0.33075,-1.0378 0.84375,-1.2188 z"
         id="path40"
         inkscape:connector-curvature="0"
         style="fill:#85340a" />
      <path
         d="m 397.84,259.53 c -2.138,0 -2.9829,1.9368 -4.9062,3.2188 1.0687,-0.42633 1.9096,-1.2693 3.4062,-2.125 1.496,-0.85442 2.7717,0.1875 3.625,0.1875 l 0.0312,0 c 0.8532,0 2.129,-1.0416 3.625,-0.1875 1.4967,0.8559 2.3688,1.6987 3.4375,2.125 -1.9233,-1.282 -2.7996,-3.2188 -4.9375,-3.2188 -0.4266,0 -1.2716,0.23055 -2.125,0.65625 l -0.0312,0 C 399.11166,259.75983 398.2667,259.53 397.84,259.53 Z"
         id="path42"
         inkscape:connector-curvature="0"
         style="fill:#85340a" />
      <path
         d="m 397.12,262.06 c -0.8439,0.0374 -1.9596,0.20675 -3.5625,0.6875 3.8473,-0.85434 4.6962,0.4375 6.4062,0.4375 l 0.0312,0 c 1.71,0 2.5588,-1.292 6.4062,-0.4375 -4.2744,-1.282 -5.1242,-0.4375 -6.4062,-0.4375 l -0.0312,0 c -0.80125,0 -1.4372,-0.3124 -2.8438,-0.25 z"
         id="path44"
         inkscape:connector-curvature="0"
         style="fill:#85340a" />
      <path
         d="m 393.75,262.72 c -0.24819,0.003 -0.51871,0.005 -0.8125,0.0312 4.488,0.42766 2.3306,3 7.0312,3 l 0.0312,0 c 4.7007,0 2.5745,-2.5724 7.0625,-3 -4.7007,-0.4266 -3.2146,2.3438 -7.0625,2.3438 l -0.0312,0 c -3.6075,0 -2.4959,-2.4215 -6.2188,-2.375 z"
         id="path46"
         inkscape:connector-curvature="0"
         style="fill:#85340a" />
      <path
         d="m 403.85,269.66 c 0,-2.1234 -1.7233,-3.8465 -3.8463,-3.8465 -2.1233,0 -3.8463,1.723 -3.8463,3.8465 0.423,-1.781 2.0166,-3.0393 3.8463,-3.0393 1.8333,0 3.424,1.2586 3.8463,3.0393 l 0,0 0,0 z"
         id="path48"
         inkscape:connector-curvature="0"
         style="fill:#85340a" />
      <path
         id="eyebrow_nose"
         d="m 382.73,244.02 c 4.9146,-4.2729 11.11,-4.9147 14.53,-1.7086 0.837,1.1207 1.3733,2.319 1.5934,3.5696 0.4302,2.433 -0.3303,5.0617 -2.2367,7.7559 0.2151,-0.001 0.6435,0.2124 0.8568,0.4266 1.6967,-3.244 2.2967,-6.5761 1.74,-9.7454 -0.1458,-0.828 -0.3735,-1.643 -0.6696,-2.4357 -4.7007,-3.8452 -11.11,-4.2729 -15.811,2.1377 z"
         inkscape:connector-curvature="0"
         style="fill:#85340a" />
      <path
         id="uppalpebra"
         d="m 390.42,242.74 c 2.7767,0 3.4186,0.6417 4.7007,1.71 1.2833,1.0683 1.9233,0.8541 2.1367,1.0683 0.2124,0.2142 0,0.8541 -0.4266,0.6399 -0.4266,-0.2142 -1.2833,-0.6399 -2.5633,-1.7086 -1.2833,-1.0696 -2.5633,-1.0683 -3.8463,-1.0683 -3.8463,0 -5.983,3.2046 -6.4094,2.9907 -0.4266,-0.2142 2.1367,-3.6325 6.4094,-3.6325 z"
         inkscape:connector-curvature="0"
         style="fill:#85340a" />
      <use
         xlink:href="#loweyecontour"
         transform="translate(-19.181,0)"
         id="use52"
         x="0"
         y="0"
         width="100%"
         height="100%" />
      <circle
         id="pupil"
         cy="246.14999"
         cx="390.54001"
         r="1.923"
         style="fill:#85340a" />
      <path
         id="lowpalpebra"
         d="m 385.29,247.44 c 3.6327,2.7783 7.265,2.5644 9.4017,1.282 2.1367,-1.282 2.1367,-1.7086 1.71,-1.7086 -0.4266,0 -0.8532,0.4266 -2.5633,1.281 -1.71,0.8559 -4.273,0.8559 -8.546,-0.8541 z"
         inkscape:connector-curvature="0"
         style="fill:#85340a" />
    </g>
    <g
       transform="translate(2000,0)"
       id="g4983">
      <path
         style="opacity:0.603;fill:url(#radialGradient6127);fill-opacity:1"
         d="m -1200,600.00079 a 40,40 0 0 1 -40,40 l 0,-20 a 20,20 0 0 0 20,-20 l 20,0 z"
         id="path5058"
         inkscape:connector-curvature="0" />
      <rect
         style="opacity:0.603;fill:url(#linearGradient6142);fill-opacity:1"
         id="rect6134"
         width="20"
         height="420.00006"
         x="-1220"
         y="180.00079"
         ry="0" />
      <rect
         style="opacity:0.603;fill:url(#linearGradient6152);fill-opacity:1"
         id="rect6144"
         width="720"
         height="20"
         x="-1960"
         y="620.00079" />
      <path
         inkscape:connector-curvature="0"
         id="path6154"
         d="m -2000,600.00079 a 40,40 0 0 0 40,40 l 0,-20 a 20,20 0 0 1 -20,-20 l -20,0 z"
         style="opacity:0.603;fill:url(#radialGradient6156);fill-opacity:1" />
      <rect
         ry="0"
         y="180.00079"
         x="1980"
         height="420.00006"
         width="20"
         id="rect6158"
         style="opacity:0.603;fill:url(#linearGradient6160);fill-opacity:1"
         transform="scale(-1,1)" />
      <rect
         y="-160.00079"
         x="-1960"
         height="20"
         width="720"
         id="rect6162"
         style="opacity:0.603;fill:url(#linearGradient6164);fill-opacity:1"
         transform="scale(1,-1)" />
      <path
         inkscape:connector-curvature="0"
         id="path6166"
         d="m -1200,180.00079 a 40,40 0 0 0 -40,-40 l 0,20 a 20,20 0 0 1 20,20 l 20,0 z"
         style="opacity:0.603;fill:url(#radialGradient6174);fill-opacity:1" />
      <path
         style="opacity:0.603;fill:url(#radialGradient6176);fill-opacity:1"
         d="m -2000,180.00079 a 40,40 0 0 1 40,-40 l 0,20 a 20,20 0 0 0 -20,20 l -20,0 z"
         id="path6168"
         inkscape:connector-curvature="0" />
      <rect
         style="opacity:0.3;fill:url(#linearGradient6209);fill-opacity:1"
         id="rect6201"
         width="760"
         height="459.99994"
         x="-1980"
         y="-620.00073"
         ry="19.999943"
         transform="scale(1,-1)" />
    </g>
  </g>
</svg>
